<svg width="38" height="22" viewBox="0 0 38 22" fill="none" xmlns="http://www.w3.org/2000/svg">
<path fill-rule="evenodd" clip-rule="evenodd" d="M2.70841 0.5C2.20008 0.5 1.71257 0.658036 1.35313 0.93934C0.993682 1.22064 0.791748 1.60218 0.791748 2C0.791748 2.39782 0.993682 2.77936 1.35313 3.06066C1.71257 3.34196 2.20008 3.5 2.70841 3.5H35.2917C35.8001 3.5 36.2876 3.34196 36.647 3.06066C37.0065 2.77936 37.2084 2.39782 37.2084 2C37.2084 1.60218 37.0065 1.22064 36.647 0.93934C36.2876 0.658036 35.8001 0.5 35.2917 0.5H2.70841ZM0.791748 11C0.791748 10.6022 0.993682 10.2206 1.35313 9.93934C1.71257 9.65804 2.20008 9.5 2.70841 9.5H35.2917C35.8001 9.5 36.2876 9.65804 36.647 9.93934C37.0065 10.2206 37.2084 10.6022 37.2084 11C37.2084 11.3978 37.0065 11.7794 36.647 12.0607C36.2876 12.342 35.8001 12.5 35.2917 12.5H2.70841C2.20008 12.5 1.71257 12.342 1.35313 12.0607C0.993682 11.7794 0.791748 11.3978 0.791748 11ZM0.791748 20.0015C0.791748 19.6037 0.993682 19.2221 1.35313 18.9408C1.71257 18.6595 2.20008 18.5015 2.70841 18.5015H35.2917C35.8001 18.5015 36.2876 18.6595 36.647 18.9408C37.0065 19.2221 37.2084 19.6037 37.2084 20.0015C37.2084 20.3993 37.0065 20.7809 36.647 21.0622C36.2876 21.3435 35.8001 21.5015 35.2917 21.5015H2.70841C2.20008 21.5015 1.71257 21.3435 1.35313 21.0622C0.993682 20.7809 0.791748 20.3993 0.791748 20.0015Z" fill="white"/>
</svg>
